<svg xmlns="http://www.w3.org/2000/svg" width="1087" height="576" viewBox="0 0 1087 576" fill="none"><path d="M891.528 576V559.512C1013.25 559.512 1053.78 385.2 987.419 376.056C974.537 374.184 963.464 390.744 933.937 390.744C876.765 390.744 823.283 341.208 825.092 267.84C826.974 201.816 880.456 146.736 948.628 146.736C1062.97 146.736 1086.93 242.136 1086.93 319.248C1086.93 434.808 1029.76 576.144 891.456 576.144" fill="#D7675E"></path><path d="M515.42 269.352H477.354C472.65 269.352 470.406 269.208 470.623 268.992C462.445 268.2 455.57 265.032 449.925 259.488C444.281 253.944 441.096 247.032 440.373 238.896C437.84 244.728 434.149 249.84 429.3 254.088C424.451 258.408 418.951 261.864 412.872 264.528C406.72 267.192 400.279 269.064 393.549 270.072C386.819 271.08 380.378 271.296 374.226 270.792C368.075 270.288 362.213 269.064 356.64 267.192C350.995 265.248 346.074 262.44 341.732 258.624C337.39 254.808 333.916 249.84 331.383 243.792C328.85 237.672 327.547 230.184 327.547 221.328C327.547 211.968 329.936 203.976 334.784 197.352C339.633 190.728 345.278 185.256 351.791 180.792C358.305 176.328 364.963 173.016 371.91 170.712C378.786 168.408 384.286 166.896 388.338 166.176C394.49 165.168 400.279 163.728 405.78 161.784C411.28 159.912 416.273 157.896 420.688 155.88C425.175 153.864 428.938 151.92 431.978 150.192C435.017 148.392 437.333 147.168 438.853 146.376C439.359 144.864 439.721 142.776 440.011 140.112C440.3 137.448 440.373 134.784 440.373 132.12V119.376C440.373 118.584 440.373 117.504 440.155 115.92C440.011 114.408 439.866 112.824 439.577 111.168C439.287 109.512 438.998 107.928 438.636 106.416C438.274 104.904 437.912 103.896 437.695 103.392C436.175 101.376 433.932 99.576 430.964 98.064C427.997 96.552 423.655 95.76 417.793 95.76C411.931 95.76 407.444 96.552 404.405 98.064C401.365 99.576 399.194 101.376 397.891 103.392C396.371 105.696 395.503 108.216 395.214 111.024V131.976C394.924 140.112 392.174 147.24 386.819 153.288C381.463 159.408 374.805 163.08 366.917 164.304C365.614 164.592 363.733 164.664 361.2 164.664C351.791 164.664 343.831 161.424 337.245 154.944C330.732 148.464 327.475 140.544 327.475 131.184V125.856C327.692 118.512 329.501 112.176 332.831 106.848C336.16 101.52 340.502 97.056 345.857 93.528C352.515 88.704 359.969 85.032 368.22 82.512C376.47 79.992 384.358 78.048 391.74 76.824C400.135 75.528 408.819 74.808 417.721 74.52C422.28 74.52 427.129 74.808 432.267 75.312C436.609 75.816 441.603 76.464 447.175 77.184C452.748 77.976 458.537 79.056 464.399 80.64C474.097 83.664 481.841 87.48 487.558 92.088C493.275 96.624 497.69 101.16 500.729 105.624C503.769 110.088 505.723 114.192 506.664 118.008C507.532 121.824 507.966 124.488 507.966 126V209.376C507.966 220.824 508.256 230.256 508.907 237.744C509.558 245.232 510.355 251.424 511.368 256.176C512.381 261.792 513.684 266.184 515.203 269.496M439.432 155.664C434.293 160.992 428.938 165.312 423.148 168.624C417.359 171.936 411.931 175.104 406.72 178.128C401.51 181.152 396.95 184.608 393.115 188.424C389.279 192.24 386.602 197.352 385.082 203.616C384.069 208.44 384.286 213.048 385.661 217.512C387.036 221.976 389.352 225.792 392.536 228.96C395.72 232.128 399.628 234.36 404.187 235.656C408.819 236.952 413.74 236.952 419.096 235.656C423.438 234.648 426.839 233.28 429.445 231.624C431.978 229.968 434.004 228.528 435.596 227.232C437.333 225.72 438.636 224.064 439.432 222.264V155.664V155.664Z" fill="white"></path><path d="M725.873 256.752C724.86 251.928 723.991 245.808 723.412 238.32C722.761 230.832 722.472 221.4 722.472 209.952V122.4C722.472 119.88 722.182 117.576 721.675 115.56C721.169 113.544 720.518 111.528 719.794 109.44C718.491 106.416 716.899 103.248 715.017 99.9362C713.136 96.6242 710.458 93.6002 707.201 90.7922C703.872 87.9842 699.82 85.7522 694.971 83.9522C690.122 82.1522 684.26 81.2882 677.385 81.2882C674.056 81.0002 670.727 81.1442 667.398 81.6482C664.575 82.1522 661.391 82.9442 657.845 84.0962C654.299 85.2482 650.825 87.1922 647.496 90.0002C642.358 94.0322 636.858 99.9362 630.851 107.712C624.844 115.488 617.752 124.632 609.646 135.288V113.04C609.646 111.816 609.429 110.664 609.357 109.44L609.646 109.584L609.864 65.6642C609.864 64.9442 609.864 64.0082 607.91 64.0082H599.804C599.804 64.0082 598.067 63.9361 598.357 65.8802C597.271 74.5202 579.613 77.8322 569.047 79.1282H538.072C535.756 79.1282 534.671 80.4242 534.671 82.9442C534.671 84.4562 535.177 85.4642 536.191 85.9682H536.553C537.059 86.2562 538.072 87.0482 539.592 88.4162C541.112 89.7842 541.908 92.1602 541.908 95.4722V269.568H616.522C614.495 269.568 612.975 268.776 611.962 267.264C610.949 265.752 610.153 264.096 609.646 262.296V151.488C610.66 150.48 612.324 148.896 614.64 146.736C616.956 144.576 619.489 142.128 622.311 139.464C625.134 136.8 627.956 134.136 630.923 131.472C633.89 128.808 636.64 126.36 639.173 124.056C639.97 123.552 641.055 122.976 642.647 122.328C644.167 121.68 645.831 121.536 647.641 121.968C649.378 122.328 650.97 123.624 652.2 125.784C653.503 127.944 654.371 131.472 654.878 136.224V238.968C655.674 247.104 658.858 253.944 664.431 259.56C670.003 265.104 676.951 268.416 685.129 269.496C684.839 269.496 687.082 269.496 691.859 269.712C696.563 269.856 701.774 269.928 707.346 269.928H729.926C728.406 266.616 727.103 262.152 726.09 256.608" fill="white"></path><path d="M303.81 256.392C302.797 251.568 301.928 245.448 301.132 237.96C300.336 230.472 300.119 221.04 300.336 209.592V120.888C300.047 118.584 299.757 116.352 299.395 114.192C299.034 112.032 298.31 109.944 297.297 107.928C296.284 104.904 294.764 101.808 292.737 98.5679C290.711 95.3999 288.033 92.4479 284.704 89.6399C281.375 86.8319 277.323 84.5279 272.474 82.7999C267.625 80.9999 261.908 80.1359 255.25 80.1359C251.921 79.8479 248.592 79.9919 245.263 80.4959C242.44 80.9999 239.256 81.7919 235.71 82.9439C232.164 84.0959 228.545 86.0399 224.999 88.8479C219.933 92.6639 214.505 98.3519 208.716 105.984C202.998 113.616 196.051 122.616 187.873 132.984V125.784C187.873 125.784 187.873 124.632 187.656 123.12C187.511 121.608 187.366 119.88 187.077 118.008C186.787 116.136 186.498 114.192 186.136 112.32C185.774 110.448 185.412 108.936 185.195 107.928C183.893 104.904 182.3 101.808 180.419 98.5679C178.537 95.3999 175.86 92.4479 172.603 89.6399C169.274 86.8319 165.221 84.5279 160.372 82.7999C155.524 80.9999 149.662 80.1359 142.786 80.1359C139.457 79.8479 136.128 79.9919 132.872 80.4959C130.049 80.9999 126.865 81.7919 123.319 82.9439C119.773 84.0959 116.299 86.0399 112.97 88.8479C107.832 92.8799 102.331 98.7839 96.3247 106.56C90.318 114.336 83.2257 123.48 75.1202 134.136V113.976C75.1202 112.464 74.9031 111.024 74.686 109.512L74.9031 109.656L75.1202 65.7359C75.1202 65.0159 75.1202 64.0799 73.1662 64.0799H65.1332C65.1332 64.0799 63.3963 64.0079 63.6858 65.9519C62.166 78.3359 26.4875 79.9199 26.4875 79.9199L26.8493 80.1359H3.47377C1.15792 80.1359 0 81.4319 0 83.9519C0 84.9599 1.88162 86.9759 1.88162 86.9759C2.38822 87.2639 3.4014 88.0559 4.92117 89.4239C6.44095 90.8639 7.23702 93.1679 7.23702 96.4799V269.352H81.8507C79.8243 269.352 78.3045 268.56 77.2914 267.048C76.2782 265.536 75.4821 263.88 74.9755 262.08V150.552C75.9887 149.544 77.5808 147.96 79.7519 145.8C81.923 143.64 84.3836 141.336 87.2061 138.744C90.0285 136.224 92.8509 133.632 95.8181 130.968C98.7129 128.304 101.463 125.856 104.068 123.552C106.601 121.752 109.062 120.888 111.378 120.888C113.404 120.888 115.286 121.68 116.95 123.336C118.615 124.992 119.7 128.376 120.207 133.416V269.352H195.182C193.156 269.352 191.564 268.56 190.406 267.048C189.248 265.536 188.452 263.88 187.945 262.08V149.76C189.248 148.464 190.985 146.808 193.301 144.648C195.617 142.488 198.077 140.184 200.755 137.592C203.433 135.072 206.183 132.552 209.005 129.96C211.827 127.44 214.505 125.136 217.038 123.12C217.834 122.616 218.92 122.04 220.512 121.392C222.032 120.744 223.624 120.6 225.288 121.032C226.953 121.392 228.473 122.616 229.848 124.632C231.223 126.648 232.164 130.104 232.742 134.928V238.824C233.539 246.96 236.723 253.8 242.295 259.416C247.868 265.032 254.671 268.272 262.559 269.352L307.718 269.712C306.198 266.4 304.896 261.936 303.882 256.392" fill="white"></path><path d="M898.693 179.856C908.101 179.856 916.062 183.096 922.647 189.576C929.233 196.056 932.562 203.976 932.562 213.336C932.562 216.36 931.838 221.112 930.463 227.448C929.088 233.784 925.397 240.048 919.608 246.312C913.746 252.504 904.772 258.048 892.686 262.872C880.6 267.696 863.738 270.072 842.099 270.072C825.02 270.072 811.053 268.488 800.125 265.32C789.197 262.152 780.368 258.264 773.782 253.728C767.196 249.192 762.347 244.368 759.236 239.472C756.196 234.504 754.17 230.184 753.156 226.368L751.999 220.248V123.552C752.505 113.904 756.051 105.192 762.709 97.272C765.532 93.96 769.078 90.72 773.42 87.552C777.762 84.384 783.045 81.504 789.269 78.984C795.493 76.464 803.019 74.448 811.776 72.864C820.533 71.352 830.665 70.56 842.172 70.56C861.278 70.56 876.62 72.504 888.199 76.464C899.778 80.424 908.752 85.104 915.121 90.576C921.489 96.048 925.759 101.448 927.93 106.92C930.102 112.392 931.404 116.64 931.983 119.664C932.779 123.48 932.996 127.008 932.779 130.32C932.49 132.12 932.128 133.848 931.621 135.648C931.115 137.448 930.608 139.104 930.102 140.616L929.74 140.976C928.944 142.776 927.93 144.504 926.7 146.304C925.397 148.32 923.226 150.552 920.187 153C917.147 155.376 913.095 157.608 908.029 159.624C903.686 161.64 898.042 163.944 891.022 166.464C884.002 168.984 876.403 171.648 868.153 174.456C859.902 177.264 851.58 180 843.185 182.808C834.79 185.616 827.046 188.136 819.954 190.44V233.424C820.171 236.232 821.257 238.752 822.994 241.056C824.296 243.072 826.395 244.872 829.507 246.384C832.547 247.896 836.889 248.688 842.534 248.688C848.178 248.688 852.521 247.896 855.705 246.384C858.889 244.872 861.133 243.072 862.435 241.056C863.955 238.752 864.824 236.232 865.113 233.424L865.475 213.264C865.475 203.904 868.804 195.912 875.39 189.504C881.975 183.024 889.864 179.784 898.982 179.784M819.954 123.408L819.809 176.688C831.099 171.864 839.711 167.472 845.718 163.584C851.725 159.624 856.139 156.312 858.962 153.504C862.291 150.48 864.317 147.672 865.113 145.152V107.064C864.824 104.256 863.955 101.736 862.435 99.432C861.133 97.416 858.962 95.616 855.705 94.104C852.448 92.592 848.106 91.8 842.534 91.8C836.961 91.8 832.547 92.592 829.507 94.104C826.467 95.616 824.296 97.416 822.994 99.432C821.184 101.736 820.171 104.256 819.954 107.064V123.408V123.408ZM838.336 57.528C845.718 56.736 851.146 54.072 854.619 49.536C858.093 44.928 860.047 40.896 860.554 37.368C861.06 36.072 861.06 34.2 860.554 31.68L859.758 27.864L858.962 24.408C858.455 18.072 860.12 12.528 863.955 7.84802C867.791 3.16802 872.784 0.576023 878.863 0.0720234C885.015 -0.719977 890.443 0.864023 895.291 4.82402C900.14 8.78402 902.818 13.68 903.325 19.512C903.614 20.304 903.614 20.88 903.542 21.384C903.397 21.888 903.542 22.392 903.759 22.896C903.542 23.688 903.325 24.984 903.18 26.928C903.035 28.8 902.601 30.816 901.805 32.832C900.792 35.64 899.199 38.52 897.028 41.616C894.857 44.64 891.745 47.592 887.62 50.4C883.568 53.208 878.284 55.656 871.916 57.816C865.547 59.976 857.659 61.416 848.178 62.208C838.77 63.216 832.185 63.648 828.494 63.576C824.803 63.432 823.066 63 823.355 62.208C823.573 61.416 825.165 60.624 828.132 59.76C831.027 58.896 834.428 58.176 838.264 57.672" fill="white"></path></svg>